<svg width="61" height="61" viewBox="0 0 61 61" fill="none" xmlns="http://www.w3.org/2000/svg">
<path fill-rule="evenodd" clip-rule="evenodd" d="M42.5255 1.768C42.5725 1.49281 42.6732 1.22957 42.822 0.99333C42.9707 0.757089 43.1646 0.552475 43.3925 0.391181C43.6203 0.229886 43.8777 0.115072 44.15 0.0532995C44.4223 -0.00847331 44.704 -0.0159941 44.9792 0.0311668C54.0458 1.5725 60.9138 9.55117 60.9138 19.1278C60.9131 19.5133 60.8076 19.8913 60.6086 20.2213C60.4095 20.5514 60.1244 20.8211 59.7838 21.0016C59.4433 21.1821 59.06 21.2665 58.6751 21.2459C58.2902 21.2253 57.9182 21.1004 57.5988 20.8845L53.3488 18.0115C53.109 17.8591 52.9022 17.6601 52.7406 17.4264C52.579 17.1926 52.4659 16.9288 52.4081 16.6506C52.3502 16.3724 52.3487 16.0854 52.4038 15.8066C52.4588 15.5278 52.5691 15.2629 52.7283 15.0275C52.8875 14.7921 53.0923 14.5911 53.3306 14.4362C53.5689 14.2814 53.8358 14.1759 54.1155 14.126C54.3953 14.0761 54.6822 14.0828 54.9593 14.1458C55.2364 14.2087 55.4981 14.3266 55.7288 14.4925L56.0122 14.6823C54.3773 9.27067 49.8355 5.168 44.2652 4.21883C43.71 4.12392 43.2152 3.81246 42.8895 3.3529C42.5638 2.89334 42.4311 2.32329 42.5255 1.768ZM18.9692 0H22.1142C25.9873 0 29.1125 -4.222e-08 31.569 0.3315C34.119 0.6715 36.2667 1.40817 37.9723 3.111C39.678 4.81667 40.409 6.96433 40.7547 9.51433C41.0833 11.9708 41.0833 15.096 41.0833 18.9692V41.9475C41.0833 45.8235 41.0833 48.9458 40.7518 51.4023C40.4118 53.9523 39.6752 56.1 37.9723 57.8057C36.2667 59.5113 34.119 60.2423 31.569 60.588C29.1125 60.9167 25.9873 60.9167 22.1142 60.9167H18.9692C15.096 60.9167 11.9708 60.9167 9.51433 60.588C6.96433 60.2452 4.81667 59.5113 3.111 57.8057C1.40533 56.1 0.674333 53.9523 0.3315 51.4023C-4.222e-08 48.9458 0 45.8207 0 41.9475V18.9692C0 15.096 -4.222e-08 11.9708 0.3315 9.51433C0.6715 6.96433 1.40817 4.81667 3.111 3.111C4.81667 1.40817 6.96433 0.674333 9.51433 0.3315C11.9708 -4.222e-08 15.096 0 18.9692 0ZM10.0782 4.54183C7.9985 4.82233 6.89917 5.33517 6.11433 6.11717C5.3295 6.902 4.8195 8.00133 4.539 10.0838C4.25283 12.2202 4.24717 15.0563 4.24717 19.125V41.7917C4.24717 45.8603 4.25283 48.6965 4.539 50.8357C4.8195 52.9153 5.33233 54.0147 6.11433 54.8023C6.89917 55.5843 7.9985 56.0943 10.081 56.3748C12.2173 56.6638 15.0563 56.6667 19.1222 56.6667H21.9555C26.0213 56.6667 28.8603 56.661 30.9995 56.3748C33.0792 56.0943 34.1785 55.5815 34.9633 54.7995C35.7482 54.0147 36.2582 52.9153 36.5387 50.8357C36.8248 48.6965 36.8305 45.8603 36.8305 41.7917V19.125C36.8305 15.0592 36.8248 12.223 36.5387 10.081C36.2582 8.00133 35.7453 6.902 34.9633 6.11717C34.1785 5.33233 33.0792 4.82233 30.9967 4.54183C28.8575 4.25567 26.0213 4.25 21.9555 4.25H19.1222C15.0563 4.25 12.2173 4.25567 10.0782 4.54183ZM11.3305 10.625C11.3305 10.0614 11.5544 9.52091 11.9529 9.1224C12.3514 8.72388 12.8919 8.5 13.4555 8.5H27.6222C28.1858 8.5 28.7263 8.72388 29.1248 9.1224C29.5233 9.52091 29.7472 10.0614 29.7472 10.625C29.7472 11.1886 29.5233 11.7291 29.1248 12.1276C28.7263 12.5261 28.1858 12.75 27.6222 12.75H13.4555C12.8919 12.75 12.3514 12.5261 11.9529 12.1276C11.5544 11.7291 11.3305 11.1886 11.3305 10.625ZM43.9138 24.7803C43.9175 24.5013 43.9762 24.2257 44.0864 23.9693C44.1966 23.7129 44.3562 23.4807 44.5562 23.286C44.7562 23.0913 44.9925 22.9379 45.2518 22.8345C45.511 22.7312 45.7881 22.6799 46.0672 22.6837C51.1898 22.7602 55.097 23.0747 57.8028 25.7777C59.5085 27.4833 60.2395 29.631 60.5852 32.181C60.9138 34.6375 60.9138 37.7627 60.9138 41.6358V41.9475C60.9138 45.8235 60.9138 48.9458 60.5852 51.4023C60.2395 53.9523 59.5085 56.1 57.8028 57.8057C55.097 60.5087 51.1898 60.8232 46.07 60.8968C45.7909 60.9009 45.5138 60.85 45.2544 60.747C44.995 60.644 44.7585 60.4909 44.5583 60.2965C44.3581 60.102 44.1981 59.8701 44.0875 59.6138C43.9769 59.3576 43.9179 59.0821 43.9138 58.803C43.9097 58.5239 43.9607 58.2468 44.0637 57.9874C44.1667 57.728 44.3198 57.4915 44.5142 57.2913C44.7086 57.0911 44.9406 56.9311 45.1968 56.8205C45.4531 56.7099 45.7286 56.6509 46.0077 56.6468C51.425 56.5703 53.4933 56.1028 54.7967 54.7995C55.5815 54.0147 56.0915 52.9153 56.372 50.8357C56.6582 48.6965 56.6638 45.8603 56.6638 41.7917C56.6638 37.7258 56.6582 34.8897 56.372 32.7477C56.0915 30.6708 55.5787 29.5687 54.7967 28.7838C53.4933 27.4805 51.425 27.013 46.0077 26.9365C45.7286 26.9324 45.4531 26.8734 45.1968 26.7629C44.9405 26.6523 44.7086 26.4924 44.5141 26.2921C44.3197 26.0919 44.1666 25.8553 44.0636 25.5959C43.9606 25.3365 43.9097 25.0594 43.9138 24.7803ZM50.2888 34C50.8524 34 51.3929 34.2239 51.7914 34.6224C52.19 35.0209 52.4138 35.5614 52.4138 36.125V47.4583C52.4138 48.0219 52.19 48.5624 51.7914 48.9609C51.3929 49.3595 50.8524 49.5833 50.2888 49.5833C49.7253 49.5833 49.1847 49.3595 48.7862 48.9609C48.3877 48.5624 48.1638 48.0219 48.1638 47.4583V36.125C48.1638 35.5614 48.3877 35.0209 48.7862 34.6224C49.1847 34.2239 49.7253 34 50.2888 34ZM20.5388 43.9167C19.9752 43.9167 19.4347 44.1406 19.0362 44.5391C18.6377 44.9376 18.4138 45.4781 18.4138 46.0417C18.4138 46.6053 18.6377 47.1458 19.0362 47.5443C19.4347 47.9428 19.9752 48.1667 20.5388 48.1667C21.1024 48.1667 21.6429 47.9428 22.0414 47.5443C22.44 47.1458 22.6638 46.6053 22.6638 46.0417C22.6638 45.4781 22.44 44.9376 22.0414 44.5391C21.6429 44.1406 21.1024 43.9167 20.5388 43.9167ZM14.1638 46.0417C14.1638 44.3509 14.8355 42.7294 16.031 41.5339C17.2266 40.3383 18.8481 39.6667 20.5388 39.6667C22.2296 39.6667 23.8511 40.3383 25.0466 41.5339C26.2422 42.7294 26.9138 44.3509 26.9138 46.0417C26.9138 47.7324 26.2422 49.3539 25.0466 50.5495C23.8511 51.745 22.2296 52.4167 20.5388 52.4167C18.8481 52.4167 17.2266 51.745 16.031 50.5495C14.8355 49.3539 14.1638 47.7324 14.1638 46.0417Z" fill="#030150"/>
</svg>
